<?xml version="1.0" encoding="utf-8"?>
<!-- Generator: Adobe Illustrator 15.0.2, SVG Export Plug-In . SVG Version: 6.00 Build 0)  -->
<!DOCTYPE svg PUBLIC "-//W3C//DTD SVG 1.1//EN" "http://www.w3.org/Graphics/SVG/1.1/DTD/svg11.dtd">
<svg version="1.1" id="Ebene_1" xmlns="http://www.w3.org/2000/svg" xmlns:xlink="http://www.w3.org/1999/xlink" x="0px" y="0px"
	 width="500px" height="500px" viewBox="0 0 500 500" enable-background="new 0 0 500 500" xml:space="preserve">
<g>
	<path fill="#222222" d="M385.852,78.058c0,3.68-0.562,7.235-1.68,10.671c-1.119,3.44-2.996,6.438-5.635,8.993
		c-2.637,2.559-6.234,4.598-10.791,6.115c-4.557,1.521-10.193,2.278-16.906,2.278c0-3.357-0.521-6.314-1.559-8.873
		c-1.043-2.556-2.439-4.714-4.197-6.475c-1.762-1.758-3.758-3.077-5.994-3.957c-2.24-0.877-4.559-1.319-6.955-1.319
		c-2.721,0-5.637,0.562-8.754,1.679c-3.117,1.12-5.557,2.319-7.312,3.598c3.357,3.68,6.475,7.876,9.352,12.59
		c2.877,4.717,5.396,9.794,7.555,15.228c2.158,5.437,3.875,11.072,5.156,16.906c1.277,5.838,1.918,11.792,1.918,17.866
		c0,12.312-1.961,23.703-5.875,34.173c-3.92,10.473-9.953,19.544-18.105,27.218c-8.154,7.674-18.467,13.669-30.938,17.985
		c-12.469,4.317-27.258,6.475-44.363,6.475c-1.761,0-3.998-0.037-6.714-0.119c-2.721-0.078-5.437-0.157-8.154-0.24
		c-2.72-0.079-5.317-0.239-7.794-0.479c-2.48-0.241-4.357-0.439-5.635-0.601c-2.08,1.12-4.197,2.519-6.355,4.197
		c-2.159,1.678-4.077,3.559-5.755,5.635c-1.679,2.079-3.039,4.398-4.077,6.954c-1.042,2.56-1.559,5.276-1.559,8.154
		c0,5.437,2.117,9.435,6.354,11.99c4.234,2.559,9.792,3.837,16.667,3.837h59.473c16.307,0,30.373,1.72,42.207,5.156
		c11.828,3.438,21.619,8.355,29.375,14.748c7.752,6.396,13.467,14.268,17.146,23.62c3.676,9.354,5.516,19.864,5.516,31.535
		c0,15.187-2.879,28.735-8.633,40.647c-5.756,11.908-14.508,21.979-26.26,30.216c-11.75,8.232-26.539,14.546-44.363,18.945
		c-17.828,4.396-38.891,6.595-63.19,6.595c-38.692,0-67.506-5.797-86.451-17.387c-18.945-11.593-28.417-28.578-28.417-50.959
		c0-17.589,5.673-31.055,17.026-40.407c11.35-9.353,27.818-14.905,49.4-16.667c-4.478-1.757-8.873-3.916-13.189-6.476
		c-4.316-2.556-8.153-5.635-11.511-9.232c-3.357-3.598-6.077-7.711-8.154-12.35c-2.079-4.635-3.117-9.832-3.117-15.588
		c0-5.433,1.079-10.469,3.237-15.107c2.158-4.636,5.156-9.071,8.993-13.31c3.836-4.233,8.431-8.232,13.789-11.99
		c5.354-3.754,11.229-7.472,17.625-11.151c-7.194-2.555-13.872-6.115-20.024-10.671c-6.156-4.557-11.432-10.031-15.828-16.427
		c-4.399-6.393-7.875-13.67-10.431-21.822c-2.559-8.154-3.837-17.184-3.837-27.099c0-28.777,8.352-51.117,25.06-67.026
		c16.704-15.906,42.566-23.861,77.578-23.861c11.668,0,22.502,1.48,32.494,4.437c9.99,2.96,18.664,6.516,26.02,10.672
		c2.717-2.878,5.713-5.954,8.992-9.232c3.275-3.275,6.992-6.273,11.152-8.993c4.154-2.717,8.789-4.953,13.908-6.715
		C338.449,50.881,344.125,50,350.359,50c5.912,0,11.068,0.761,15.469,2.278c4.395,1.521,8.07,3.56,11.031,6.114
		c2.955,2.56,5.193,5.516,6.715,8.873C385.092,70.623,385.852,74.221,385.852,78.058z M172.183,380.694
		c0,13.587,4.916,23.622,14.748,30.096c9.832,6.476,24.18,9.713,43.045,9.713c28.778,0,49.719-4.159,62.829-12.47
		c13.107-8.314,19.666-20.545,19.666-36.69c0-10.395-3.279-17.667-9.832-21.822c-6.557-4.159-16.469-6.236-29.736-6.236h-57.075
		c-4.957,0-9.993,0.439-15.108,1.319c-5.119,0.878-9.794,2.676-14.029,5.396c-4.238,2.718-7.715,6.513-10.432,11.392
		C173.539,366.266,172.183,372.698,172.183,380.694z M205.036,153.357c0,8.633,0.6,16.427,1.799,23.381
		c1.199,6.955,3.155,12.912,5.875,17.866c2.716,4.957,6.234,8.794,10.551,11.511c4.317,2.72,9.672,4.076,16.067,4.076
		c6.554,0,11.991-1.318,16.306-3.956c4.318-2.639,7.754-6.475,10.312-11.511c2.557-5.036,4.355-11.11,5.396-18.226
		c1.037-7.112,1.559-15.067,1.559-23.861c0-9.112-0.562-17.386-1.68-24.82c-1.121-7.434-2.998-13.789-5.635-19.064
		c-2.639-5.276-6.115-9.391-10.432-12.35c-4.316-2.957-9.753-4.437-16.307-4.437c-6.396,0-11.75,1.521-16.067,4.556
		c-4.316,3.039-7.794,7.276-10.431,12.71c-2.638,5.437-4.519,11.911-5.636,19.425C205.595,136.174,205.036,144.405,205.036,153.357z
		"/>
</g>
</svg>
